<svg width="19" height="24" viewBox="0 0 19 24" fill="none" xmlns="http://www.w3.org/2000/svg">
<path d="M1.30042 23.3939C1.07715 23.3932 0.857824 23.3351 0.663582 23.225C0.462828 23.1121 0.295663 22.948 0.179198 22.7493C0.0627329 22.5506 0.00115036 22.3246 0.000753502 22.0943V3.02821C-0.0168157 2.24883 0.273459 1.49392 0.808668 0.92708C1.34388 0.360245 2.0809 0.0271558 2.86001 0H15.3368C16.1159 0.0271558 16.8529 0.360245 17.3881 0.92708C17.9233 1.49392 18.2136 2.24883 18.196 3.02821V22.0943C18.1947 22.3211 18.134 22.5436 18.02 22.7397C17.906 22.9357 17.7426 23.0986 17.5462 23.212C17.3486 23.326 17.1245 23.3861 16.8964 23.3861C16.6682 23.3861 16.4441 23.326 16.2465 23.212L8.87745 19.0401L1.95025 23.199C1.75472 23.3204 1.53047 23.3876 1.30042 23.3939Z" fill="#32C75B"/>
</svg>
