<svg width="19" height="24" viewBox="0 0 19 24" fill="none" xmlns="http://www.w3.org/2000/svg">
<path d="M1.00098 3.00586C0.989336 2.48949 1.18154 1.98883 1.53613 1.61328C1.88794 1.24087 2.37124 1.02097 2.88281 1H15.3135C15.8253 1.02085 16.3092 1.24061 16.6611 1.61328C17.0157 1.98883 17.2079 2.48949 17.1963 3.00586V22.0879C17.196 22.1402 17.1816 22.1921 17.1553 22.2373C17.129 22.2824 17.0911 22.3196 17.0459 22.3457C17.0004 22.3719 16.949 22.3857 16.8965 22.3857C16.8439 22.3857 16.7917 22.372 16.7461 22.3457L16.7393 22.3418L9.37012 18.1699L8.8623 17.8828L8.3623 18.1826L1.43555 22.3418L1.42871 22.3457L1.42285 22.3496C1.3824 22.3747 1.33636 22.3877 1.28906 22.3916C1.24262 22.3892 1.19682 22.3785 1.15625 22.3555V22.3545L1.15332 22.3535L1.09082 22.3057C1.072 22.2872 1.05544 22.2661 1.04199 22.2432C1.02868 22.2204 1.01861 22.1961 1.01172 22.1709L1.00098 22.0928V3.00586Z" stroke="black" stroke-width="2"/>
</svg>
