<svg width="16" height="21" viewBox="0 0 16 21" fill="none" xmlns="http://www.w3.org/2000/svg">
<path d="M1.12786 20.2896C0.934215 20.289 0.743993 20.2386 0.575527 20.1431C0.401412 20.0452 0.256429 19.9028 0.155419 19.7305C0.0544084 19.5582 0.000997714 19.3622 0.000653515 19.1624V2.62638C-0.0145843 1.95042 0.237171 1.29568 0.70136 0.804059C1.16555 0.312442 1.80477 0.0235523 2.4805 0H13.3016C13.9774 0.0235523 14.6166 0.312442 15.0808 0.804059C15.545 1.29568 15.7967 1.95042 15.7815 2.62638V19.1624C15.7803 19.3591 15.7276 19.5521 15.6288 19.7222C15.5299 19.8922 15.3882 20.0335 15.2179 20.1318C15.0465 20.2308 14.8521 20.2828 14.6543 20.2828C14.4564 20.2828 14.262 20.2308 14.0907 20.1318L7.69944 16.5135L1.69146 20.1205C1.52187 20.2258 1.32738 20.2842 1.12786 20.2896Z" fill="#F04747"/>
</svg>
