<svg width="329" height="217" viewBox="0 0 329 217" fill="none" xmlns="http://www.w3.org/2000/svg">
<path d="M16.2 65.7H28.98V13.725H45.18V2.69999H2.45683e-05V13.725H16.2V65.7ZM79.2577 18C73.9027 18 69.2677 20.34 65.9827 24.3V-4.76837e-06H53.6077V65.7H65.9827V40.32C65.9827 33.3 70.8427 28.935 76.5577 28.935C81.3277 28.935 85.3777 32.985 85.3777 38.16V65.7H97.7527V36.855C97.7527 25.56 90.1927 18 79.2577 18ZM118.253 46.08H154.973C155.288 44.82 155.513 43.02 155.513 41.58C155.513 28.575 145.343 18 131.078 18C116.633 18 105.743 28.755 105.743 42.39C105.743 56.025 116.318 66.78 132.248 66.78C141.923 66.78 148.673 62.64 153.758 56.88L147.548 50.67C143.183 54.765 138.593 56.925 132.203 56.925C124.733 56.925 119.333 52.56 118.253 46.08ZM130.988 27.855C137.018 27.855 141.428 31.725 142.778 37.26H118.568C120.233 31.59 125.138 27.855 130.988 27.855ZM41.31 130.89L59.49 98.58V140.7H71.55V77.7H58.5L37.98 114.69L17.46 77.7H4.41002V140.7H16.47V98.58L34.65 130.89H41.31ZM81.3973 117.39C81.3973 131.025 92.4673 141.78 107.272 141.78C122.122 141.78 133.147 131.025 133.147 117.39C133.147 103.755 122.122 93 107.272 93C92.4673 93 81.3973 103.755 81.3973 117.39ZM93.8173 117.39C93.8173 109.83 99.6673 103.935 107.272 103.935C114.922 103.935 120.772 109.83 120.772 117.39C120.772 124.995 114.922 130.845 107.272 130.845C99.6673 130.845 93.8173 124.995 93.8173 117.39ZM169.767 94.08L159.327 125.805L148.887 94.08H136.017L152.667 140.7H165.987L182.637 94.08H169.767ZM189.712 140.7H202.087V94.08H189.712V140.7ZM188.587 81.66C188.587 85.71 191.782 88.815 195.922 88.815C200.062 88.815 203.257 85.71 203.257 81.66C203.257 77.61 200.062 74.505 195.922 74.505C191.782 74.505 188.587 77.61 188.587 81.66ZM223.81 121.08H260.53C260.845 119.82 261.07 118.02 261.07 116.58C261.07 103.575 250.9 93 236.635 93C222.19 93 211.3 103.755 211.3 117.39C211.3 131.025 221.875 141.78 237.805 141.78C247.48 141.78 254.23 137.64 259.315 131.88L253.105 125.67C248.74 129.765 244.15 131.925 237.76 131.925C230.29 131.925 224.89 127.56 223.81 121.08ZM236.545 102.855C242.575 102.855 246.985 106.725 248.335 112.26H224.125C225.79 106.59 230.695 102.855 236.545 102.855ZM16.2 215.7H28.98V163.725H45.18V152.7H2.45683e-05V163.725H16.2V215.7ZM71.5992 178.935C73.1742 178.935 74.9742 179.295 76.5492 179.835L77.4042 168.99C76.3242 168.405 74.7492 168 73.1742 168C67.8192 168 63.6792 170.835 60.7092 174.795V169.08H48.3342V215.7H60.7092V190.995C60.7092 183.75 65.6592 178.935 71.5992 178.935ZM80.9578 192.39C80.9578 206.025 90.4528 216.78 103.458 216.78C109.983 216.78 115.248 214.26 118.983 210.12V215.7H131.223V169.08H118.983V174.66C115.248 170.52 109.983 168 103.458 168C90.4528 168 80.9578 178.755 80.9578 192.39ZM93.3778 192.39C93.3778 184.83 98.9578 178.935 106.113 178.935C113.313 178.935 118.983 184.83 118.983 192.39C118.983 199.995 113.313 205.845 106.113 205.845C98.9578 205.845 93.3778 199.995 93.3778 192.39ZM179.663 198.69C176.288 203.1 171.608 205.845 165.983 205.845C157.928 205.845 152.528 199.995 152.528 192.39C152.528 184.83 157.928 178.935 164.633 178.935C169.313 178.935 172.553 181.185 174.038 184.74H187.493C184.703 174.48 176.558 168 164.633 168C150.728 168 140.108 178.755 140.108 192.39C140.108 206.025 150.728 216.78 165.533 216.78C174.533 216.78 181.553 212.415 186.233 203.775L179.663 198.69ZM222.575 169.08C222.575 181.545 217.85 184.695 212.36 184.695H208.805V150H196.43V215.7H208.805V195.315H213.575L224.825 215.7H238.55L225.545 192.66C231.71 188.88 234.95 181.095 234.95 169.08H222.575ZM253.253 196.08H289.973C290.288 194.82 290.513 193.02 290.513 191.58C290.513 178.575 280.343 168 266.078 168C251.633 168 240.743 178.755 240.743 192.39C240.743 206.025 251.318 216.78 267.248 216.78C276.923 216.78 283.673 212.64 288.758 206.88L282.548 200.67C278.183 204.765 273.593 206.925 267.203 206.925C259.733 206.925 254.333 202.56 253.253 196.08ZM265.988 177.855C272.018 177.855 276.428 181.725 277.778 187.26H253.568C255.233 181.59 260.138 177.855 265.988 177.855ZM322.703 178.935C324.278 178.935 326.078 179.295 327.653 179.835L328.508 168.99C327.428 168.405 325.853 168 324.278 168C318.923 168 314.783 170.835 311.813 174.795V169.08H299.438V215.7H311.813V190.995C311.813 183.75 316.763 178.935 322.703 178.935Z" fill="black"/>
</svg>
