<?xml version="1.0" encoding="utf-8"?>
<!-- Generator: Adobe Illustrator 22.0.0, SVG Export Plug-In . SVG Version: 6.00 Build 0)  -->
<svg version="1.1" id="Layer_1" xmlns="http://www.w3.org/2000/svg" xmlns:xlink="http://www.w3.org/1999/xlink" x="0px" y="0px"
	 viewBox="0 0 500 500" style="enable-background:new 0 0 500 500;" xml:space="preserve">
<style type="text/css">
	.st0{fill:#AAB1BA;}
	.st1{fill:#FDDF7F;}
	.st2{fill:#ECF4F7;}
	.st3{fill:#83E1E5;}
	.st4{fill:#1C1D21;}
	.st5{fill:none;}
</style>
<g>
	<path class="st3" d="M434.58,5H65.42c-17.99,0-32.573,14.583-32.573,32.573v424.854c0,17.99,14.583,32.573,32.573,32.573H434.58
		c17.989,0,32.573-14.583,32.573-32.573V37.573C467.152,19.583,452.569,5,434.58,5z"/>
</g>
<g>
	<path class="st1" d="M467.152,43.564v-5.991C467.152,19.583,452.569,5,434.58,5H65.42c-17.99,0-32.573,14.583-32.573,32.573v5.991
		H467.152z"/>
</g>
<g>
	<path class="st0" d="M32.848,415.528v46.899c0,17.99,14.583,32.573,32.573,32.573H434.58c17.989,0,32.573-14.583,32.573-32.573
		v-46.899H32.848z"/>
</g>
<g>
	<path class="st2" d="M364.448,330.202c-6.075,0-11,4.925-11,11v9.515c0,2.378-1.935,4.313-4.313,4.313h-34.767v-24.228
		c0-12.284-4.895-23.418-12.831-31.581c34.534-18.441,58.037-54.831,58.037-96.715c0-25.036-8.402-48.105-22.533-66.556l6.485-2.538
		c8.556-3.348,15.222-10.268,18.248-18.942l5.597-16.045c3.779-10.833-6.627-21.239-17.46-17.46l-16.045,5.597
		c-8.675,3.026-15.595,9.692-18.943,18.249l-2.885,7.373C294.4,100.043,273.032,92.931,250,92.931s-44.4,7.112-62.039,19.251
		l-2.885-7.373c-3.348-8.556-10.268-15.222-18.943-18.249l-16.045-5.597c-10.833-3.779-21.239,6.627-17.46,17.46l5.597,16.045
		c3.026,8.675,9.692,15.595,18.248,18.942l6.485,2.538c-14.13,18.451-22.533,41.521-22.533,66.556
		c0,41.884,23.503,78.274,58.037,96.715c-7.936,8.163-12.831,19.297-12.831,31.582v64.35h-4.553
		c-6.183,0-11.196,5.013-11.196,11.196v9.18h15.749h7.928h30.906v7.935c0,2.391,1.939,4.33,4.33,4.33h42.408
		c2.392,0,4.33-1.939,4.33-4.33v-7.935h30.906h7.928h15.749v-9.18c0-6.184-5.013-11.196-11.196-11.196h-4.553v-18.123h34.767
		c14.509,0,26.313-11.804,26.313-26.313v-9.515C375.448,335.127,370.523,330.202,364.448,330.202z"/>
</g>
<g>
	<circle class="st0" cx="250" cy="139.968" r="21.068"/>
</g>
<g>
	<circle class="st0" cx="216.412" cy="255.942" r="21.068"/>
</g>
<g>
	<circle class="st0" cx="283.588" cy="255.942" r="21.068"/>
</g>
<g>
	<circle class="st0" cx="313.376" cy="186.285" r="21.068"/>
</g>
<g>
	<circle class="st0" cx="186.624" cy="186.285" r="21.068"/>
</g>
<g>
	<circle class="st0" cx="250" cy="202.256" r="20.231"/>
</g>
<path class="st4" d="M127.907,100.07c-2.386-6.839-0.686-14.27,4.436-19.392c5.122-5.122,12.551-6.825,19.393-4.436l16.044,5.597
	c7.532,2.627,14.092,7.746,18.472,14.413c1.516,2.308,0.874,5.408-1.434,6.924c-2.309,1.516-5.408,0.874-6.924-1.434
	c-3.179-4.839-7.94-8.555-13.407-10.462l-16.044-5.597c-3.233-1.125-6.607-0.355-9.028,2.065c-2.42,2.42-3.192,5.795-2.064,9.026
	l5.597,16.046c1.881,5.39,5.529,10.107,10.272,13.281c2.295,1.535,2.911,4.641,1.375,6.936c-0.964,1.441-2.548,2.22-4.16,2.221
	c-0.956,0-1.922-0.274-2.776-0.846c-6.536-4.373-11.563-10.871-14.154-18.298L127.907,100.07z M315.68,102.126
	c2.252,1.6,5.373,1.071,6.972-1.181c3.199-4.502,7.646-7.844,12.862-9.664l16.044-5.597c3.232-1.125,6.607-0.355,9.028,2.065
	c2.42,2.42,3.192,5.795,2.064,9.027l-5.597,16.045c-1.779,5.1-5.026,9.479-9.39,12.665c-2.23,1.628-2.719,4.756-1.091,6.986
	c0.979,1.341,2.5,2.052,4.042,2.052c1.023,0,2.055-0.313,2.944-0.962c6.012-4.388,10.485-10.421,12.937-17.448l5.597-16.044
	c2.386-6.84,0.686-14.271-4.436-19.393s-12.554-6.82-19.393-4.436L332.22,81.84c-7.185,2.507-13.313,7.111-17.72,13.314
	C312.901,97.405,313.429,100.526,315.68,102.126z M349.136,372.029h-18.523c-2.761,0-5,2.238-5,5s2.239,5,5,5h18.523
	c17.266,0,31.313-14.047,31.313-31.313v-9.515c0-8.822-7.178-16-16-16s-16,7.178-16,16v8.827h-17.836c-2.761,0-5,2.238-5,5
	s2.239,5,5,5h18.523c5.135,0,9.313-4.178,9.313-9.313v-9.515c0-3.309,2.691-6,6-6s6,2.691,6,6v9.515
	C370.448,362.469,360.888,372.029,349.136,372.029z M472.152,37.573v424.854c0,20.718-16.855,37.573-37.573,37.573H65.42
	c-20.718,0-37.573-16.855-37.573-37.573V37.573C27.848,16.855,44.703,0,65.42,0H434.58C455.297,0,472.152,16.855,472.152,37.573z
	 M462.152,37.573C462.152,22.369,449.783,10,434.58,10H65.42c-15.204,0-27.573,12.369-27.573,27.573v424.854
	C37.848,477.631,50.217,490,65.42,490H434.58c15.204,0,27.573-12.369,27.573-27.573V37.573z M85.458,458.505h-6.717
	c-2.761,0-5,2.238-5,5s2.239,5,5,5h6.717c2.761,0,5-2.238,5-5S88.219,458.505,85.458,458.505z M113.441,458.505h-6.717
	c-2.761,0-5,2.238-5,5s2.239,5,5,5h6.717c2.761,0,5-2.238,5-5S116.202,458.505,113.441,458.505z M141.424,458.505h-6.716
	c-2.761,0-5,2.238-5,5s2.239,5,5,5h6.716c2.761,0,5-2.238,5-5S144.186,458.505,141.424,458.505z M169.408,458.505h-6.716
	c-2.761,0-5,2.238-5,5s2.239,5,5,5h6.716c2.761,0,5-2.238,5-5S172.169,458.505,169.408,458.505z M197.392,458.505h-6.717
	c-2.761,0-5,2.238-5,5s2.239,5,5,5h6.717c2.761,0,5-2.238,5-5S200.153,458.505,197.392,458.505z M225.375,458.505h-6.717
	c-2.761,0-5,2.238-5,5s2.239,5,5,5h6.717c2.761,0,5-2.238,5-5S228.136,458.505,225.375,458.505z M253.358,458.505h-6.717
	c-2.761,0-5,2.238-5,5s2.239,5,5,5h6.717c2.761,0,5-2.238,5-5S256.12,458.505,253.358,458.505z M281.342,458.505h-6.717
	c-2.761,0-5,2.238-5,5s2.239,5,5,5h6.717c2.761,0,5-2.238,5-5S284.103,458.505,281.342,458.505z M309.325,458.505h-6.717
	c-2.761,0-5,2.238-5,5s2.239,5,5,5h6.717c2.761,0,5-2.238,5-5S312.086,458.505,309.325,458.505z M337.309,458.505h-6.716
	c-2.761,0-5,2.238-5,5s2.239,5,5,5h6.716c2.761,0,5-2.238,5-5S340.07,458.505,337.309,458.505z M365.292,458.505h-6.716
	c-2.761,0-5,2.238-5,5s2.239,5,5,5h6.716c2.761,0,5-2.238,5-5S368.053,458.505,365.292,458.505z M393.276,458.505h-6.717
	c-2.761,0-5,2.238-5,5s2.239,5,5,5h6.717c2.761,0,5-2.238,5-5S396.037,458.505,393.276,458.505z M421.259,458.505h-6.717
	c-2.761,0-5,2.238-5,5s2.239,5,5,5h6.717c2.761,0,5-2.238,5-5S424.021,458.505,421.259,458.505z M78.741,48.564h6.717
	c2.761,0,5-2.238,5-5s-2.239-5-5-5h-6.717c-2.761,0-5,2.238-5,5S75.979,48.564,78.741,48.564z M106.724,48.564h6.717
	c2.761,0,5-2.238,5-5s-2.239-5-5-5h-6.717c-2.761,0-5,2.238-5,5S103.963,48.564,106.724,48.564z M134.708,48.564h6.716
	c2.761,0,5-2.238,5-5s-2.239-5-5-5h-6.716c-2.761,0-5,2.238-5,5S131.947,48.564,134.708,48.564z M162.691,48.564h6.716
	c2.761,0,5-2.238,5-5s-2.239-5-5-5h-6.716c-2.761,0-5,2.238-5,5S159.93,48.564,162.691,48.564z M190.675,48.564h6.717
	c2.761,0,5-2.238,5-5s-2.239-5-5-5h-6.717c-2.761,0-5,2.238-5,5S187.914,48.564,190.675,48.564z M218.658,48.564h6.717
	c2.761,0,5-2.238,5-5s-2.239-5-5-5h-6.717c-2.761,0-5,2.238-5,5S215.897,48.564,218.658,48.564z M246.642,48.564h6.717
	c2.761,0,5-2.238,5-5s-2.239-5-5-5h-6.717c-2.761,0-5,2.238-5,5S243.88,48.564,246.642,48.564z M274.625,48.564h6.717
	c2.761,0,5-2.238,5-5s-2.239-5-5-5h-6.717c-2.761,0-5,2.238-5,5S271.864,48.564,274.625,48.564z M302.608,48.564h6.717
	c2.761,0,5-2.238,5-5s-2.239-5-5-5h-6.717c-2.761,0-5,2.238-5,5S299.847,48.564,302.608,48.564z M330.592,48.564h6.716
	c2.761,0,5-2.238,5-5s-2.239-5-5-5h-6.716c-2.761,0-5,2.238-5,5S327.831,48.564,330.592,48.564z M358.576,48.564h6.716
	c2.761,0,5-2.238,5-5s-2.239-5-5-5h-6.716c-2.761,0-5,2.238-5,5S355.814,48.564,358.576,48.564z M386.559,48.564h6.717
	c2.761,0,5-2.238,5-5s-2.239-5-5-5h-6.717c-2.761,0-5,2.238-5,5S383.798,48.564,386.559,48.564z M421.259,38.564h-6.717
	c-2.761,0-5,2.238-5,5s2.239,5,5,5h6.717c2.761,0,5-2.238,5-5S424.021,38.564,421.259,38.564z M250,227.487
	c-13.913,0-25.231-11.318-25.231-25.231c0-13.912,11.318-25.23,25.231-25.23s25.231,11.318,25.231,25.23
	C275.231,216.169,263.913,227.487,250,227.487z M265.231,202.256c0-8.398-6.833-15.23-15.231-15.23s-15.231,6.832-15.231,15.23
	s6.833,15.231,15.231,15.231S265.231,210.654,265.231,202.256z M223.932,139.968c0-14.374,11.694-26.068,26.068-26.068
	s26.068,11.694,26.068,26.068S264.374,166.036,250,166.036S223.932,154.342,223.932,139.968z M233.932,139.968
	c0,8.86,7.208,16.068,16.068,16.068s16.068-7.208,16.068-16.068S258.86,123.899,250,123.899S233.932,131.107,233.932,139.968z
	 M242.48,255.941c0,14.374-11.694,26.068-26.068,26.068s-26.068-11.694-26.068-26.068s11.694-26.067,26.068-26.067
	S242.48,241.567,242.48,255.941z M232.48,255.941c0-8.859-7.208-16.067-16.068-16.067c-8.86,0-16.068,7.208-16.068,16.067
	c0,8.86,7.208,16.068,16.068,16.068C225.272,272.01,232.48,264.802,232.48,255.941z M309.656,255.941
	c0,14.374-11.694,26.068-26.068,26.068s-26.068-11.694-26.068-26.068s11.694-26.067,26.068-26.067S309.656,241.567,309.656,255.941z
	 M299.656,255.941c0-8.859-7.208-16.067-16.068-16.067c-8.86,0-16.068,7.208-16.068,16.067c0,8.86,7.208,16.068,16.068,16.068
	C292.448,272.01,299.656,264.802,299.656,255.941z M339.444,186.285c0,14.374-11.694,26.068-26.068,26.068
	s-26.068-11.694-26.068-26.068s11.694-26.068,26.068-26.068S339.444,171.911,339.444,186.285z M329.444,186.285
	c0-8.86-7.208-16.068-16.068-16.068s-16.068,7.208-16.068,16.068s7.208,16.068,16.068,16.068S329.444,195.146,329.444,186.285z
	 M186.624,212.354c-14.374,0-26.068-11.694-26.068-26.068s11.694-26.068,26.068-26.068s26.068,11.694,26.068,26.068
	S200.998,212.354,186.624,212.354z M202.692,186.285c0-8.86-7.208-16.068-16.068-16.068s-16.068,7.208-16.068,16.068
	s7.208,16.068,16.068,16.068S202.692,195.146,202.692,186.285z M250,317.08c-63.177,0-114.575-51.397-114.575-114.574
	S186.823,87.931,250,87.931s114.575,51.398,114.575,114.575S313.177,317.08,250,317.08z M354.575,202.506
	c0-57.663-46.912-104.575-104.575-104.575s-104.575,46.912-104.575,104.575c0,57.662,46.912,104.574,104.575,104.574
	S354.575,260.168,354.575,202.506z M78.741,420.528h4.924c2.761,0,5-2.238,5-5s-2.239-5-5-5h-4.924c-2.761,0-5,2.238-5,5
	S75.979,420.528,78.741,420.528z M394.423,410.528h-59.305v-4.181c0-8.781-7.024-15.953-15.75-16.19v-59.356
	c0-7.129-1.474-14.038-4.382-20.534c-1.128-2.52-4.085-3.649-6.606-2.521c-2.52,1.128-3.649,4.086-2.521,6.606
	c2.329,5.202,3.509,10.736,3.509,16.448v59.351h-7.822c-2.761,0-5,2.238-5,5s2.239,5,5,5h12.822h0.08h4.473
	c3.417,0,6.196,2.779,6.196,6.196v4.181h-44.584v-25.848c0-8.902,2.763-17.418,7.991-24.625l11.692-16.118
	c1.622-2.234,1.124-5.361-1.111-6.982s-5.361-1.124-6.983,1.111l-11.692,16.118c-6.474,8.925-9.896,19.471-9.896,30.496v30.848
	v7.265H255v-50.572c0-2.762-2.239-5-5-5s-5,2.238-5,5v50.572h-15.534v-7.265v-30.848c0-11.025-3.422-21.571-9.896-30.496
	l-11.692-16.118c-1.623-2.235-4.749-2.733-6.983-1.111c-2.235,1.621-2.733,4.748-1.111,6.982l11.692,16.118
	c5.228,7.207,7.991,15.723,7.991,24.625v25.848h-44.584v-4.181c0-3.417,2.78-6.196,6.196-6.196h4.553h12.902c2.761,0,5-2.238,5-5
	s-2.239-5-5-5h-7.902v-59.35c0-5.713,1.181-11.247,3.51-16.449c1.128-2.521,0-5.479-2.521-6.606
	c-2.521-1.128-5.479,0.001-6.606,2.521c-2.908,6.496-4.383,13.404-4.383,20.535v59.355c-8.725,0.237-15.75,7.409-15.75,16.19v4.181
	h-59.305c-2.761,0-5,2.238-5,5s2.239,5,5,5h64.305h49.584v2.935c0,5.145,4.186,9.33,9.33,9.33h42.408c5.145,0,9.33-4.186,9.33-9.33
	v-2.935h49.584h64.305c2.761,0,5-2.238,5-5S397.185,410.528,394.423,410.528z M421.259,410.528h-4.924c-2.761,0-5,2.238-5,5
	s2.239,5,5,5h4.924c2.761,0,5-2.238,5-5S424.021,410.528,421.259,410.528z M100.577,151.502c0,2.762,2.239,5,5,5s5-2.238,5-5v-6.534
	h6.535c2.761,0,5-2.238,5-5s-2.239-5-5-5h-6.535v-6.534c0-2.762-2.239-5-5-5s-5,2.238-5,5v6.534h-6.535c-2.761,0-5,2.238-5,5
	s2.239,5,5,5h6.535V151.502z M401.452,272.01h-6.534v-6.534c0-2.762-2.239-5-5-5s-5,2.238-5,5v6.534h-6.535c-2.761,0-5,2.238-5,5
	s2.239,5,5,5h6.535v6.535c0,2.762,2.239,5,5,5s5-2.238,5-5v-6.535h6.534c2.761,0,5-2.238,5-5S404.213,272.01,401.452,272.01z"/>
</svg>
